<svg xmlns="http://www.w3.org/2000/svg" viewBox="0 0 763.9 351.25"><defs><style>.cls-1{fill:#fff;stroke:#4fa0ca;stroke-miterlimit:10;stroke-width:4px;}.cls-2{fill:#898989;}.cls-3{fill:#2776b4;}.cls-4{fill:#1e1e1e;}.cls-5{fill:#1a60a9;}.cls-6{fill:#4c459d;}.cls-7{fill:#d13a9a;}.cls-8{fill:#ef1a52;}.cls-9{fill:#44b5b0;}.cls-10{fill:#f28f19;}.cls-11,.cls-14{fill:#1c1b1c;}.cls-12{fill:#3d3d3d;}.cls-13{fill:#f4bd15;}.cls-14{opacity:0.44;}</style></defs><g id="Layer_2" data-name="Layer 2"><rect class="cls-1" x="2" y="2" width="347.25" height="347.25"></rect><path class="cls-2" d="M589.07,210.29H600.5V233h10.64v11.42H600.5v12.88A17.23,17.23,0,0,1,612,273.58v17.25H600.61V273.58a5.86,5.86,0,0,0-5.82-5.83h-5.72v-23.3H578.43V233h10.64Z" transform="translate(-216.42 -80.64)"></path><path class="cls-2" d="M632.87,227.43A5.79,5.79,0,0,0,627,221.6H615.62V210.18H627a17.18,17.18,0,0,1,17.25,17.25v63.4H632.87Z" transform="translate(-216.42 -80.64)"></path><path class="cls-2" d="M659.3,290.83H647.88v-63.4a17.29,17.29,0,0,1,28.78-12.88,17.3,17.3,0,0,1,28.79,12.77v63.51H694v-63.4a5.83,5.83,0,0,0-11.65-.23v.23H671v-.23a5.83,5.83,0,0,0-11.65.23Z" transform="translate(-216.42 -80.64)"></path><path class="cls-2" d="M720.46,290.83H709V210.18h11.43v47.15a17.28,17.28,0,0,1,23.07,16.13v17.37H732.11V273.58a5.83,5.83,0,0,0-11.65-.23Z" transform="translate(-216.42 -80.64)"></path><path class="cls-2" d="M755.41,227.43a5.79,5.79,0,0,0-5.83-5.83H738.15V210.18h11.43a17.19,17.19,0,0,1,17.25,17.25v63.4H755.41Z" transform="translate(-216.42 -80.64)"></path><path class="cls-2" d="M770.41,273.69a17.42,17.42,0,0,1,17.25-17.36v11.53a5.77,5.77,0,1,0,5.83,5.83V227.54a5.77,5.77,0,1,0-11.54,0H770.41a17.25,17.25,0,1,1,34.5,0v46.15a17.25,17.25,0,0,1-34.5,0Z" transform="translate(-216.42 -80.64)"></path><path class="cls-2" d="M819.92,290.83H808.5v-63.4a17.29,17.29,0,0,1,28.78-12.88,17.3,17.3,0,0,1,28.79,12.77v63.51H854.65v-63.4A5.83,5.83,0,0,0,843,227.2v.23H831.57v-.23a5.83,5.83,0,0,0-11.65.23Z" transform="translate(-216.42 -80.64)"></path><path class="cls-2" d="M869.65,273.58V227.43a17.26,17.26,0,0,1,17.25-17.25H904V221.6H886.9a5.85,5.85,0,0,0-5.82,5.83v46.15a5.77,5.77,0,1,0,5.82-5.83V256.33a17.25,17.25,0,1,1-17.25,17.25Z" transform="translate(-216.42 -80.64)"></path><path class="cls-2" d="M907.73,250.5a17.27,17.27,0,0,1,11.43-16.24V210.18H930.7v34.5H925a5.78,5.78,0,0,0-5.83,5.82v23.08a5.76,5.76,0,0,0,5.83,5.71,5.84,5.84,0,0,0,5.82-5.71V250.5h11.43v23.08a17.26,17.26,0,0,1-34.51,0Z" transform="translate(-216.42 -80.64)"></path><path class="cls-2" d="M957.24,290.83H945.82v-63.4a17.25,17.25,0,0,1,34.5-.11v63.51H968.89v-63.4a5.86,5.86,0,0,0-5.82-5.83,5.79,5.79,0,0,0-5.83,5.83Z" transform="translate(-216.42 -80.64)"></path><path class="cls-3" d="M586.57,213.9H598v22.73h10.64v11.43H598v12.88a17.22,17.22,0,0,1,11.54,16.24v17.25H598.11V277.18a5.86,5.86,0,0,0-5.82-5.82h-5.72v-23.3H575.93V236.63h10.64Z" transform="translate(-216.42 -80.64)"></path><path class="cls-3" d="M630.37,231a5.79,5.79,0,0,0-5.83-5.82H613.12V213.78h11.42A17.18,17.18,0,0,1,641.79,231v63.4H630.37Z" transform="translate(-216.42 -80.64)"></path><path class="cls-3" d="M656.8,294.43H645.38V231a17.29,17.29,0,0,1,28.78-12.88A17.3,17.3,0,0,1,703,230.92v63.51H691.53V231a5.83,5.83,0,0,0-11.65-.22V231H668.45v-.22a5.83,5.83,0,0,0-11.65.22Z" transform="translate(-216.42 -80.64)"></path><path class="cls-4" d="M718,294.43H706.53V213.78H718v47.16A17.25,17.25,0,0,1,741,277.07v17.36H729.61V277.18A5.83,5.83,0,0,0,718,277Z" transform="translate(-216.42 -80.64)"></path><path class="cls-4" d="M752.91,231a5.79,5.79,0,0,0-5.83-5.82H735.65V213.78h11.43A17.19,17.19,0,0,1,764.33,231v63.4H752.91Z" transform="translate(-216.42 -80.64)"></path><path class="cls-4" d="M767.91,277.3a17.43,17.43,0,0,1,17.25-17.37v11.54A5.77,5.77,0,1,0,791,277.3V231.15a5.77,5.77,0,1,0-11.54,0H767.91a17.25,17.25,0,1,1,34.5,0V277.3a17.25,17.25,0,0,1-34.5,0Z" transform="translate(-216.42 -80.64)"></path><path class="cls-4" d="M817.42,294.43H806V231a17.29,17.29,0,0,1,28.78-12.88,17.3,17.3,0,0,1,28.79,12.77v63.51H852.15V231a5.83,5.83,0,0,0-11.65-.22V231H829.07v-.22a5.83,5.83,0,0,0-11.65.22Z" transform="translate(-216.42 -80.64)"></path><path class="cls-4" d="M867.15,277.18V231a17.26,17.26,0,0,1,17.25-17.25h17.14v11.43H884.4a5.85,5.85,0,0,0-5.82,5.82v46.15a5.77,5.77,0,1,0,5.82-5.82V259.93a17.25,17.25,0,1,1-17.25,17.25Z" transform="translate(-216.42 -80.64)"></path><path class="cls-4" d="M905.23,254.11a17.26,17.26,0,0,1,11.43-16.24V213.78H928.2v34.5h-5.71a5.79,5.79,0,0,0-5.83,5.83v23.07a5.77,5.77,0,0,0,5.83,5.72,5.84,5.84,0,0,0,5.82-5.72V254.11h11.43v23.07a17.26,17.26,0,0,1-34.51,0Z" transform="translate(-216.42 -80.64)"></path><path class="cls-4" d="M954.74,294.43H943.32V231a17.25,17.25,0,0,1,34.5-.11v63.51H966.39V231a5.86,5.86,0,0,0-5.82-5.82,5.79,5.79,0,0,0-5.83,5.82Z" transform="translate(-216.42 -80.64)"></path></g><g id="Layer_1" data-name="Layer 1"><path class="cls-5" d="M323.22,384c4.21,1.33,11,3.48,16.19,3.41V356.77a3.32,3.32,0,0,1-.75-.15,3.28,3.28,0,0,1-2.11-2.16L333.18,344a4.5,4.5,0,0,1,1.64-4.86l4.59-3.26V245.33h-28V380.88q4.75,1,9.59,2.41C321.64,383.48,322.39,383.72,323.22,384Z" transform="translate(-216.42 -80.64)"></path><path class="cls-5" d="M337.16,342.84l2.25,7v-8.88l-2.14,1.52A.61.61,0,0,0,337.16,342.84Z" transform="translate(-216.42 -80.64)"></path><polygon class="cls-6" points="151.01 235.38 151.01 164.69 123 164.69 123 255.28 151.01 235.38"></polygon><path class="cls-6" d="M344.51,386.09c1.44-1,2.14-2.75,2.14-5.28V352.58l-5,3.52a3.48,3.48,0,0,1-2.27.67v30.62A9.08,9.08,0,0,0,344.51,386.09Z" transform="translate(-216.42 -80.64)"></path><path class="cls-7" d="M380.24,306.92a4.69,4.69,0,0,1,5.25,0l10,7.07V245.33h-28V316Z" transform="translate(-216.42 -80.64)"></path><path class="cls-8" d="M419.08,380a10,10,0,0,0,3.3,7.65c.34.32.7.62,1.08.92v-32.9l-4.38-3.11Z" transform="translate(-216.42 -80.64)"></path><path class="cls-8" d="M397.49,315.44v-4.87a3.78,3.78,0,0,1,3.82-3.72h10.26a3.77,3.77,0,0,1,3.82,3.72V327.5a1.83,1.83,0,0,0,.55,1.05l7.52,5.34V245.33h-28V314Z" transform="translate(-216.42 -80.64)"></path><path class="cls-9" d="M430.91,339.18a4.5,4.5,0,0,1,1.64,4.86l-3.37,10.42a3.28,3.28,0,0,1-2.11,2.16,3.37,3.37,0,0,1-3-.52l-.59-.41v32.9c5.12,3.91,14.52,5.94,28,6.05V245.33h-28v88.56Z" transform="translate(-216.42 -80.64)"></path><path class="cls-9" d="M428.58,342.82a.61.61,0,0,0-.14-.37l-5-3.53v11.75l2.1,1.49Z" transform="translate(-216.42 -80.64)"></path><path class="cls-10" d="M458.65,394.53a107.83,107.83,0,0,0,20.85-3V245.33h-28V394.64Q454.89,394.67,458.65,394.53Z" transform="translate(-216.42 -80.64)"></path><path class="cls-5" d="M334.82,339.18a4.5,4.5,0,0,0-1.64,4.86l3.37,10.42a3.28,3.28,0,0,0,2.11,2.16,3.32,3.32,0,0,0,.75.15v-6.95l-2.25-7a.61.61,0,0,1,.11-.38l2.14-1.52v-5Z" transform="translate(-216.42 -80.64)"></path><path class="cls-5" d="M321.94,387.84c4.72,1.5,11.59,3.66,17.47,3.59v-4c-5.17.07-12-2.08-16.19-3.41-.83-.26-1.58-.5-2.23-.69q-4.83-1.44-9.59-2.41V385c2.77.6,5.56,1.31,8.37,2.15Z" transform="translate(-216.42 -80.64)"></path><path class="cls-6" d="M341.68,356.1l5-3.52v28.23c0,2.53-.7,4.26-2.14,5.28a9.08,9.08,0,0,1-5.1,1.3v4a13.21,13.21,0,0,0,7.55-2.06c2.56-1.81,3.85-4.69,3.85-8.56V350.28a2.91,2.91,0,0,0-1.55-2.71,3.08,3.08,0,0,0-3.16.37l-5.93,4.22-.76-2.34v6.95A3.48,3.48,0,0,0,341.68,356.1Z" transform="translate(-216.42 -80.64)"></path><polygon class="cls-6" points="123 255.28 123 260.31 151.01 240.4 151.01 235.38 123 255.28"></polygon><path class="cls-7" d="M385.49,306.92a4.69,4.69,0,0,0-5.25,0L367.43,316v5l15.24-10.83a.53.53,0,0,1,.37,0L395.45,319v-5Z" transform="translate(-216.42 -80.64)"></path><path class="cls-8" d="M422.38,387.67a10,10,0,0,1-3.3-7.65V352.58l4.38,3.11v-5l-3.83-2.73a3.08,3.08,0,0,0-3.16-.37,2.91,2.91,0,0,0-1.55,2.71V380a14,14,0,0,0,4.57,10.58,20.39,20.39,0,0,0,4,2.86v-4.87C423.08,388.29,422.72,388,422.38,387.67Z" transform="translate(-216.42 -80.64)"></path><path class="cls-8" d="M415.94,328.55a1.83,1.83,0,0,1-.55-1.05V310.57a3.77,3.77,0,0,0-3.82-3.72H401.31a3.78,3.78,0,0,0-3.82,3.72v4.87l-2-1.45v5l1.5,1.07a3.08,3.08,0,0,0,3.16.37,2.91,2.91,0,0,0,1.55-2.71v-6.83h9.57V327.5a5.73,5.73,0,0,0,2.25,4.33l10,7.09v-5Z" transform="translate(-216.42 -80.64)"></path><path class="cls-9" d="M423.46,388.59v4.87c6.09,3.41,15.36,5.14,28,5.23v-4.05C438,394.53,428.58,392.5,423.46,388.59Z" transform="translate(-216.42 -80.64)"></path><path class="cls-9" d="M424.05,356.1a3.37,3.37,0,0,0,3,.52,3.28,3.28,0,0,0,2.11-2.16L432.55,344a4.5,4.5,0,0,0-1.64-4.86l-7.45-5.29v5l5,3.53a.61.61,0,0,1,.14.37l-3,9.34-2.1-1.49v5Z" transform="translate(-216.42 -80.64)"></path><path class="cls-10" d="M458.65,394.53q-3.76.14-7.17.11v4.05h1.1c2,0,4.07,0,6.22-.11a110.55,110.55,0,0,0,20.7-2.89v-4.17A107.83,107.83,0,0,1,458.65,394.53Z" transform="translate(-216.42 -80.64)"></path><rect class="cls-5" x="108.99" y="271.52" width="3.59" height="55.64" rx="1.8"></rect><rect class="cls-9" x="214.52" y="278.93" width="3.59" height="55.64" rx="1.8"></rect><rect class="cls-9" x="225.99" y="271.52" width="3.59" height="55.64" rx="1.8"></rect><rect class="cls-10" x="237.46" y="268.22" width="3.59" height="55.64" rx="1.8"></rect><rect class="cls-5" x="100.65" y="260.9" width="3.59" height="55.64" rx="1.8"></rect><rect class="cls-7" x="153.53" y="212.58" width="3.59" height="55.64" rx="1.8"></rect><rect class="cls-7" x="158.79" y="202.64" width="3.59" height="55.64" rx="1.8"></rect><path class="cls-11" d="M289.59,237.38h0Z" transform="translate(-216.42 -80.64)"></path><path class="cls-12" d="M396.71,154.89h-7.28c0,.29,0,.58,0,.87-.17,6.46-1.44,8.1-7.88,9.85-9.55,2.59-19.14,5.09-28.72,7.59-19,5-38,9.88-57,14.89-9,2.38-12.1,6.35-12.18,15.62-.07,8-.11,16,0,23.93.08,4.17,1.56,7,4.35,8.83a2,2,0,0,1-.35-1.14v-6.18h4.44a7.28,7.28,0,0,1-1.46-3.34c-.3-6.66-.13-13.35-.12-20,0-8.17.87-9.14,9-11.27q42.18-11,84.33-22.18c9.09-2.42,12.28-6.58,12.9-15.94C396.74,155.9,396.73,155.4,396.71,154.89Z" transform="translate(-216.42 -80.64)"></path><path class="cls-12" d="M289.6,237.37h12.1v-8.23h-9.63v0A59.48,59.48,0,0,1,289.6,237.37Z" transform="translate(-216.42 -80.64)"></path><path class="cls-12" d="M287.63,235.33a2,2,0,0,0,.35,1.14,12.16,12.16,0,0,0,1.59.9h0a59.48,59.48,0,0,0,2.48-8.2v0h-4.44Z" transform="translate(-216.42 -80.64)"></path><rect class="cls-13" x="165" y="16.68" width="21.74" height="62.03" rx="10.87"></rect><rect class="cls-3" x="81.58" y="131.1" width="197.46" height="40.3" rx="20.15"></rect><rect class="cls-14" x="94.98" y="170.23" width="168.1" height="18.88"></rect><rect class="cls-3" x="381.64" y="189.31" width="3.59" height="55.64" rx="1.8"></rect><rect class="cls-3" x="389.51" y="195.3" width="3.59" height="39.27" rx="1.8"></rect><rect class="cls-3" x="413.95" y="183.55" width="3.59" height="39.27" rx="1.8"></rect><rect class="cls-3" x="421.8" y="190.8" width="3.59" height="39.27" rx="1.8"></rect><rect class="cls-4" x="490.09" y="184.55" width="3.59" height="39.27" rx="1.8"></rect><rect class="cls-4" x="513.18" y="198.59" width="3.59" height="39.27" rx="1.8"></rect><rect class="cls-4" x="635.73" y="188.04" width="3.59" height="39.27" rx="1.8"></rect><rect class="cls-4" x="643.56" y="193.87" width="3.59" height="39.27" rx="1.8"></rect><rect class="cls-4" x="688.83" y="184.55" width="3.59" height="39.27" rx="1.8"></rect><rect class="cls-4" x="726.89" y="188.05" width="3.59" height="39.27" rx="1.8"></rect><rect class="cls-4" x="734.85" y="195.05" width="3.59" height="39.27" rx="1.8"></rect><rect class="cls-4" x="658.35" y="188.05" width="3.59" height="39.27" rx="1.8"></rect><rect class="cls-4" x="570.1" y="206.36" width="3.59" height="17.15" rx="1.8"></rect></g></svg>